<svg width="29" height="38" viewBox="0 0 29 38" xmlns="http://www.w3.org/2000/svg"><title>Baby Care</title><g fill="none" fill-rule="evenodd"><path d="M21.193 36.96H7.497c-1.366 0-2.483-1.12-2.483-2.484V17.303h18.662v17.173c0 1.365-1.117 2.483-2.483 2.483z" stroke="#3A3F47" fill="#F2E0BB"/><path d="M25.62 12.917h-1.986c-.62-3.683-3.393-6.662-6.993-7.53V3.482c0-1.16-.95-2.11-2.11-2.11-1.158 0-2.11.95-2.11 2.11v1.82c-3.723.828-6.58 3.807-7.24 7.573H3.192c-1.16 0-2.11.952-2.11 2.11v.166c0 1.158.95 2.11 2.11 2.11h22.47c1.158 0 2.11-.952 2.11-2.11v-.166c-.083-1.117-.994-2.07-2.152-2.07z" stroke="#3A3F47" fill="#D2E8F8"/><path fill="#F4D862" d="M16.6 5.386c-.33-.083-.662-.124-.993-.207"/><path d="M16.724 4.972c-.33-.082-.662-.124-.993-.206-.206-.042-.454.04-.496.29-.04.206.083.496.29.496.33.04.662.124.993.207.497.123.704-.663.207-.788z" fill="#3A3F47"/><path fill="#F4D862" d="M5.262 12.917h2.36"/><path d="M5.262 13.33H7.58c.537 0 .537-.827 0-.827H5.26c-.538 0-.538.828 0 .828z" fill="#3A3F47"/><g><path fill="#F4D862" d="M21.234 12.917h2.36"/><path d="M21.234 13.33h2.318c.538 0 .538-.827 0-.827h-2.318c-.537 0-.537.828 0 .828z" fill="#3A3F47"/></g><g fill="#3A3F47"><path d="M20.78 20.986h-3.435c-.248 0-.248.414 0 .414h3.434c.29 0 .29-.414 0-.414zM17.345 24.297h3.434c.248 0 .248-.414 0-.414h-3.435c-.248 0-.248.414 0 .414zM20.78 26.738h-3.435c-.248 0-.248.414 0 .414h3.434c.29 0 .29-.414 0-.414zM20.78 29.593h-3.435c-.248 0-.248.414 0 .414h3.434c.29 0 .29-.414 0-.414zM20.78 32.448h-3.435c-.248 0-.248.414 0 .414h3.434c.29 0 .29-.414 0-.414z"/></g></g></svg>