<svg width="38" height="38" viewBox="0 0 38 38" xmlns="http://www.w3.org/2000/svg"><title>Bakery</title><g transform="translate(1 1)" fill="none" fill-rule="evenodd"><path d="M18 .123C8.14.123.164 8.1.164 17.96.164 27.817 8.14 35.794 18 35.794c9.86 0 17.836-7.977 17.836-17.836C35.796 8.1 27.818.122 18 .122zm0 24.095c-3.477 0-6.3-2.823-6.3-6.3s2.823-6.3 6.3-6.3 6.3 2.823 6.3 6.3-2.823 6.3-6.3 6.3z" fill="#F3E1BC"/><g fill="#AF7F72"><path d="M19.76 23.973h.572l.45-.368c-.327.122-.696.245-1.023.368z"/><path d="M30.968 5.605l-5.563-4.09L18 .122l-6.218 1.104-4.664 2.455-3.723 3.886-2.045 4.01-.9 3.68-.368 2.415 1.35-.778 1.186.123.696.9.572 5.85.982.86 1.555-.123.9-2.21 1.472-.777 1.187.86.573 5.522.49 1.636 1.637.082 1.063-1.063v-5.89s.41.285-.04-.124c-1.228-1.145-2.005-2.78-2.005-4.622 0-3.477 2.823-6.3 6.3-6.3s6.3 2.823 6.3 6.3c0 .49-.04.982-.164 1.432l.246-.614.41-1.472 1.553-.41 1.637.982.204 7.078 1.555.98 1.555-1.144.082-13.132.982-1.35 1.676.082-3.068-4.745z"/></g><path d="M18 .123C8.14.123.164 8.1.164 17.96.164 27.817 8.14 35.794 18 35.794c9.86 0 17.836-7.977 17.836-17.836C35.796 8.1 27.818.122 18 .122zm0 24.095c-3.477 0-6.3-2.823-6.3-6.3s2.823-6.3 6.3-6.3 6.3 2.823 6.3 6.3-2.823 6.3-6.3 6.3z" stroke="#3A3F47"/><path d="M11.986 12.15c3.396-3.273 8.428-3.355 11.905-.123.287.287.737-.163.45-.45-3.722-3.436-9.122-3.395-12.763.123-.327.286.123.736.41.45z" fill="#3A3F47"/><circle stroke="#3A3F47" cx="18" cy="17.918" r="6.3"/><path d="M7.118 23.032c0 .9-.777 1.76-1.677 1.76s-1.635-.737-1.635-1.637m0 .08l-.37-4.744c0-.9-.735-1.635-1.635-1.635S.164 17.59.164 18.49m10.35 9.696l-.164-5.113c0-.9-.736-1.637-1.636-1.637-.9 0-1.637.737-1.637 1.637m3.437 5.032c0 .9.736 1.636 1.636 1.636.9 0 1.636-.735 1.636-1.635l.164-5.114m14.114-4.05v5.196c0 .9.736 1.637 1.636 1.637.9 0 1.636-.737 1.636-1.637V18.94m-.04 5.237V11.905c0-.9.736-1.637 1.636-1.637.9 0 1.554.777 1.84 1.677m-10.554 6.79c.327-1.267.94-1.88 2.046-1.88 1.145-.04 1.76.9 1.8 1.84v5.196" stroke="#3A3F47"/><path d="M25.16 24.75v2.66c0 .408.613.408.613 0v-2.66c0-.41-.614-.41-.614 0zM33.26 16.118v2.66c0 .408.613.408.613 0v-2.66c0-.368-.614-.368-.614 0zM15.995 28.186v2.66c0 .41.614.41.614 0v-2.66c0-.41-.615-.41-.615 0zM7.895 25.936v2.66c0 .41.614.41.614 0v-2.66c0-.41-.615-.41-.615 0z" fill="#3A3F47"/><path d="M9.49 16.773c0 .695-.572 1.268-1.267 1.268-.696 0-1.268-.572-1.268-1.267 0-.696.572-1.268 1.268-1.268.695 0 1.268.572 1.268 1.268zm-3.6-6.955c-.695 0-1.267.573-1.267 1.268 0 .696.572 1.27 1.268 1.27.696 0 1.27-.574 1.27-1.27.04-.695-.533-1.268-1.27-1.268zm6.915-6.463c-.696 0-1.27.572-1.27 1.268 0 .695.574 1.268 1.27 1.268.695 0 1.268-.572 1.268-1.267.04-.696-.532-1.268-1.268-1.268zm10.39 2.372c-.695 0-1.268.573-1.268 1.268 0 .696.573 1.27 1.268 1.27.696 0 1.27-.574 1.27-1.27 0-.695-.574-1.268-1.27-1.268zm4.582 3.437c-.695 0-1.268.572-1.268 1.268 0 .695.572 1.268 1.267 1.268.696 0 1.268-.573 1.268-1.268 0-.696-.53-1.268-1.268-1.268z" stroke="#3A3F47" fill="#F3DBC4"/></g></svg>