<svg width="28" height="38" viewBox="0 0 28 38" xmlns="http://www.w3.org/2000/svg"><title>Cosmetics</title><g fill="none" fill-rule="evenodd"><g stroke="#3A3F47"><path d="M18.414 8.074v-3.64c0-.085.042-.17.126-.253l4.144-2.97c.46-.336 1.172-.084 1.214.502V8.158" fill="#F2E5D1"/><path d="M24.944 15.986V8.158H17.41v7.828" fill="#BABABC"/><path d="M8.535 36.833H5.437c-2.302 0-4.186-1.884-4.186-4.186V21.22h11.47v11.427c0 2.302-1.84 4.186-4.185 4.186zM22.726 36.833h-3.098c-2.302 0-4.186-1.884-4.186-4.186V15.82h11.47v16.827c0 2.302-1.884 4.186-4.186 4.186z" fill="#F15C55"/></g><path d="M25.07 28.335c-.042 2.637.92 6.363-2.596 6.907-.418.042-.21.67.168.586 3.935-.586 3.056-4.563 3.056-7.493 0-.42-.628-.42-.628 0z" fill="#3A3F47"/><path fill="#F37365" d="M18.58 12.22v3.515"/><path d="M18.288 12.22v3.473c0 .42.628.42.628 0V12.22c0-.378-.628-.378-.628 0zM3.847 34.53c1.758.92 4.27.544 6.11.293.378-.042.42-.67 0-.628-1.715.21-4.185.628-5.776-.21-.375-.166-.71.378-.333.545z" fill="#3A3F47"/></g></svg>