<svg width="29" height="37" viewBox="0 0 29 37" xmlns="http://www.w3.org/2000/svg"><title>Flowers</title><g fill="none" fill-rule="evenodd"><path d="M22.062 13.497c.166 3.103-2.483 6.04-5.628 6.206-3.144.166-6-2.44-6.124-5.627-.124-3.228 2.4-6.042 5.545-6.207 3.186-.125 6.042 2.482 6.207 5.627z" fill="#3A3F47"/><path d="M12.96 22.186c-.126-2.648 1.28-4.883 3.392-5.007 1.862-.083 3.807 1.86 3.972 4.592.124 2.4-1.53 4.676-3.476 4.76-1.903.123-3.724-1.49-3.89-4.346zm6.537-16.47c-.125-2.647-1.78-4.716-3.89-4.633-1.862.083-3.6 2.234-3.476 5.007.125 2.4 2.03 4.47 3.932 4.386 1.945-.124 3.56-1.904 3.435-4.76zm8.11 13.822c.87-1.738-.248-4.304-2.44-5.38-2.484-1.24-5.133-.496-5.96 1.16-.952 1.903.29 4.22 2.648 5.42 2.566 1.324 4.883.538 5.752-1.2zm-16.84-12.58c-2.36-1.2-5.008-.786-5.96 1.118-.828 1.655.165 4.22 2.648 5.462 2.152 1.076 4.883.455 5.752-1.283.87-1.696.124-4.014-2.44-5.296zm16.136-.082c-1.075-1.614-3.848-1.945-5.875-.62-2.318 1.49-3.02 4.178-1.987 5.75 1.16 1.78 3.808 1.863 6.043.415 2.4-1.572 2.855-3.93 1.82-5.544zM7.58 15.07C5.344 16.516 4.392 19 5.55 20.78c1.034 1.572 3.765 1.986 6.04.496 2.03-1.324 2.856-3.973 1.822-5.586-1.076-1.697-3.435-2.193-5.835-.62z" stroke="#3A3F47" fill="#F4D862"/><path d="M19.538 13.662c.083 1.78-1.407 3.435-3.186 3.517-1.78.082-3.393-1.408-3.476-3.187-.083-1.82 1.365-3.434 3.145-3.517 1.82-.124 3.435 1.365 3.518 3.186z" stroke="#3A3F47" fill="#F2E0BB"/><path d="M13.166 18.67C9.98 23.923 8.614 30.627 9.98 36.627c.123.538.91.29.786-.207-1.325-5.75.04-12.248 3.103-17.296.29-.496-.415-.91-.704-.455z" fill="#3A3F47"/><path d="M1.166 28.145s8.15-2.938 8.73 2.11c.042.248.042 1.076-.33 1.573-.456.62-1.325 1.24-3.228.993-1.614-.123-3.683-1.158-5.172-4.675z" stroke="#3A3F47" fill="#F2E0BB"/><path d="M6.38 28.848c.868-.082 1.903.25 1.986 1.242.04.248.455.248.413 0-.125-1.2-1.283-1.738-2.4-1.656-.29.042-.29.456 0 .414zM17.76 8.903c.743-.703.992-1.613.868-2.606-.042-.25-.456-.166-.414.124.124.828-.124 1.614-.745 2.194-.208.165.123.455.29.29zM21.814 18.834c-.828-.248-1.407-.868-1.655-1.655-.084-.25-.498-.166-.415.123.29.952.993 1.656 1.945 1.945.29.083.413-.33.124-.414z" fill="#3A3F47"/></g></svg>