<svg width="33" height="38" viewBox="0 0 33 38" xmlns="http://www.w3.org/2000/svg"><title>Fruits &amp; Vegetables</title><g transform="translate(1 1)" fill="none" fill-rule="evenodd"><ellipse stroke="#3A3F47" fill="#FCB23A" cx="15.423" cy="20.659" rx="15.095" ry="15.055"/><path d="M24.873 22.173c0 .368-.287.654-.655.654-.368 0-.654-.286-.654-.654 0-.368.286-.655.654-.655.368 0 .655.287.655.655zm-.45-2.864c-.368 0-.655.285-.655.654 0 .368.287.654.655.654.368 0 .654-.286.654-.654 0-.37-.286-.655-.654-.655zm2.004 1.513c-.368 0-.654.286-.654.654 0 .368.286.655.654.655.368 0 .655-.287.655-.655 0-.368-.287-.654-.655-.654zm0-2.332c-.368 0-.654.287-.654.655 0 .37.286.655.654.655.368 0 .655-.286.655-.655 0-.368-.327-.654-.655-.654zm-1.063-.9c.08.45-.287.82-.737.737-.286-.04-.49-.245-.532-.532-.08-.45.287-.818.737-.736.245.08.49.285.532.53zm-.737-3.845c.082.45-.286.82-.736.737-.285-.04-.49-.246-.53-.532-.083-.45.285-.818.735-.736.287.08.49.286.532.53zm-1.432-1.472c.082.45-.286.818-.736.736-.287-.042-.492-.246-.533-.533-.082-.45.287-.818.737-.736.286.042.49.246.53.533zm-.695 2.045c.082.45-.286.818-.736.737-.287-.04-.49-.246-.532-.532-.082-.45.286-.818.736-.737.246.04.49.287.532.532zM5.277 20.332c.082.45-.286.818-.736.736-.285-.04-.49-.245-.53-.532-.083-.45.285-.818.735-.736.246.04.49.245.532.532zM6.71 18.9c.08.45-.287.818-.737.736-.287-.04-.49-.245-.532-.53-.08-.45.287-.82.737-.738.246.04.49.246.532.532zm0 2.864c.08.45-.287.818-.737.736-.287-.04-.49-.245-.532-.532-.08-.45.287-.818.737-.736.246.04.49.245.532.532zm-1.024 1.84c.082.45-.286.82-.736.737-.286-.04-.49-.245-.532-.53-.082-.45.287-.82.737-.737.286.04.49.245.53.532zm20.29-8.018c.083.45-.285.82-.735.737-.285-.04-.49-.246-.53-.532-.083-.45.285-.817.735-.735.246.04.45.245.532.53zM23.115 20.7c.08.45-.287.818-.737.736-.286-.04-.49-.245-.532-.53-.08-.45.287-.82.737-.738.245.04.45.246.532.532zm-.573 4.623c.083.45-.285.818-.735.736-.287-.042-.49-.246-.532-.533-.082-.45.286-.818.736-.736.245.042.49.246.53.533zm-.367-2.496c.082.45-.287.818-.737.737-.286-.04-.49-.246-.53-.532-.083-.45.285-.818.735-.737.287.04.492.287.533.532zm1.063-4.377c.082.45-.286.818-.736.736-.286-.04-.49-.245-.532-.53-.082-.45.287-.82.737-.738.286.04.49.287.53.532zm.49 5.4c.083.45-.285.818-.735.736-.285-.04-.49-.245-.53-.53-.083-.45.285-.82.735-.738.287.04.49.287.532.532zm.983 2.005c.08.45-.287.818-.737.736-.287-.04-.49-.245-.532-.53-.08-.45.287-.82.737-.737.287.04.49.245.532.532zm-1.433 1.677c.082.45-.286.818-.736.736-.285-.04-.49-.245-.53-.532-.083-.45.285-.818.735-.736.246.04.49.286.532.532zm.49-11.455c.083.45-.285.818-.735.737-.287-.04-.49-.246-.532-.532-.082-.45.286-.818.736-.737.246.04.45.246.532.532zm1.72 7.037c-.45-.082-.82.286-.737.736.04.286.245.49.532.532.45.082.818-.287.736-.737-.04-.245-.245-.45-.532-.53z" fill="#3A3F47"/><path d="M15.505 7.855c-.82-4.132.94-6.832 1.554-7.61.122-.122.326-.163.45-.04l1.022 1.022c.082.082.123.246.04.368-2.208 3.396-2.74 5.4-2.904 6.22-.04.12-.163.12-.163.04z" stroke="#3A3F47" fill="#AE7E72"/><path d="M15.586 6.136c-.08.41-5.522 1.432-5.318-5.195 0-.04.04-.08.082-.04.245.123 1.145.49 2.905.818 3.313.614 2.33 4.418 2.33 4.418z" stroke="#3A3F47" fill="#F2E0BB"/><path d="M15.71 5.727c-.942-.204-1.678-1.104-2.046-1.963-.164-.37-.696-.04-.532.327.45.983 1.31 2.005 2.413 2.25.37.042.532-.53.164-.613zM16.405 7.486c-.41.94-1.964.246-2.537-.04-.368-.205-.654.327-.327.53.9.492 2.783 1.147 3.355-.162.205-.37-.327-.696-.49-.328z" fill="#3A3F47"/></g></svg>