<svg width="27" height="38" viewBox="0 0 27 38" xmlns="http://www.w3.org/2000/svg"><title>Grocery</title><g transform="translate(0 1)" fill="none" fill-rule="evenodd"><path d="M22.688 3.474v3.182c0 .125.084.21.168.25 1.8.713 3.097 2.47 3.097 4.522v19.758c0 2.512-2.05 4.563-4.562 4.563H5.066c-2.512 0-4.563-2.052-4.563-4.564V11.428c0-1.968 1.34-3.81 3.056-4.605.084-.042.168-.125.168-.25V3.515" fill="#86D1D1"/><path fill="#F2E6D2" d="M.628 14.358h25.2v12.35H.628z"/><path fill="#AE7E72" d="M.544 14.065h25.41"/><path d="M.544 14.484h25.41c.544 0 .544-.837 0-.837H.543c-.544 0-.544.837 0 .837z" fill="#3A3F47"/><path fill="#AE7E72" d="M.544 20.22h25.41"/><path d="M.544 20.637h25.41c.544 0 .544-.837 0-.837H.543c-.544 0-.544.837 0 .837z" fill="#3A3F47"/><path fill="#AE7E72" d="M.544 26.623h25.41"/><path d="M.544 27.042h25.41c.544 0 .544-.837 0-.837H.543c-.544 0-.544.837 0 .837z" fill="#3A3F47"/><circle stroke="#3A3F47" fill="#81D0DA" cx="13.312" cy="20.302" r="3.307"/><path d="M22.688 3.474v3.182c0 .125.084.21.168.25 1.8.713 3.097 2.47 3.097 4.522v19.758c0 2.512-2.05 4.563-4.562 4.563H5.066c-2.512 0-4.563-2.052-4.563-4.564V11.428c0-1.968 1.34-3.81 3.056-4.605.084-.042.168-.125.168-.25V3.515" stroke="#3A3F47"/><path d="M23.274 3.474H2.972c-.25 0-.42-.167-.42-.418V.544c0-.25.17-.418.42-.418h20.302c.252 0 .42.167.42.418v2.512c0 .21-.168.418-.42.418z" stroke="#3A3F47" fill="#86D1D1"/><path d="M23.19 5.693H3.18c-.208 0-.375-.167-.375-.377v-.21c0-.208.167-.376.376-.376h20.01c.21 0 .377.168.377.377v.21c0 .21-.167.376-.376.376z" stroke="#3A3F47" stroke-width=".5" fill="#F2E5D1"/><path d="M2.386 29.302c0 1.633-.25 3.14 1.172 4.312.21.167.502-.126.293-.293-1.338-1.087-1.045-2.51-1.045-4.018 0-.293-.42-.293-.42 0zM2.512 14.15v12.013c0 .25.418.25.418 0V14.15c0-.294-.418-.294-.418 0zM3.6 21.474v4.69c0 .25.42.25.42 0v-4.69c0-.293-.42-.293-.42 0z" fill="#3A3F47"/></g></svg>