<svg width="37" height="33" viewBox="0 0 37 33" xmlns="http://www.w3.org/2000/svg"><title>Household</title><g transform="translate(-1 1)" fill="none" fill-rule="evenodd"><path d="M6.788 9.432v21.42h26.46V9.432L20.864.396c-.36-.288-.864-.288-1.26 0L6.788 9.432z" fill="#94D9F8"/><path d="M7.18 9.527l-4.706 3.685" fill="#F2E0BB"/><path d="M31.764 8.844c1.768 1.264 3.535 2.485 5.26 3.75.453.338.867-.472.415-.765-1.77-1.266-3.536-2.486-5.26-3.753-.454-.337-.87.43-.416.767z" fill="#3A3F47"/><path d="M3.356 10.496l4.212-3.204" fill="#F2E0BB"/><path d="M1.764 12.425C3.532 11.16 5.3 9.94 7.024 8.675c.453-.34.867.47.415.765-1.77 1.265-3.536 2.485-5.26 3.75-.454.34-.87-.427-.416-.765z" fill="#3A3F47"/><circle stroke="#3A3F47" fill="#F4D862" cx="20.18" cy="10.188" r="2.988"/><path d="M16.4 31.032V25.2c0-2.016 1.62-3.636 3.636-3.636s3.636 1.62 3.636 3.636v5.832" stroke="#3A3F47" fill="#F2E0BB"/><path d="M6.788 9.432v21.42h26.46V9.432L20.864.396c-.36-.288-.864-.288-1.26 0L6.788 9.432z" stroke="#3A3F47"/><g><path d="M26.048 30.708V26.28m1.8 4.428v-2.304" fill="#F2E0BB"/><g fill="#3A3F47"><path d="M26.228 30.708v-4.392c0-.216-.36-.216-.36 0v4.392c0 .216.36.216.36 0zM28.028 30.708v-2.304c0-.216-.36-.216-.36 0v2.304c0 .216.36.216.36 0z"/></g></g><g><path d="M14.096 30.456v-3.564m-1.8 3.564v-2.304" fill="#F2E0BB"/><g fill="#3A3F47"><path d="M14.276 30.456v-3.564c0-.216-.36-.216-.36 0v3.564c0 .216.36.216.36 0zM12.476 30.456v-2.304c0-.216-.36-.216-.36 0v2.304c0 .216.36.216.36 0z"/></g></g></g></svg>