<svg width="35" height="38" viewBox="0 0 35 38" xmlns="http://www.w3.org/2000/svg"><title>Meats</title><g fill="none" fill-rule="evenodd"><path d="M12.805 26.535l-3.642 4.06c-.042.042 0 .084 0 .084.795.376 1.423 1.506 1.59 2.343.335 1.717-.837 3.39-2.595 3.642-1.59.25-3.098-.795-3.474-2.344-.042-.25-.084-.5-.084-.753 0-.04-.042-.04-.042-.04-.377 0-2.805-.17-3.307-2.47-.376-1.676.755-3.308 2.43-3.643 1.004-.21 2.3.084 3.306 1.256.042.042.042.042.084 0l3.558-4.144" stroke="#3A3F47" fill="#F2E0BB"/><path d="M30.595 2.758c-4.48-3.223-11.68-1.046-16.2 4.94-4.52 5.986-6.907 14.818-2.762 18.25 4.227 3.475 14.232-.67 18.71-6.655 4.564-5.986 4.9-13.186.252-16.535z" stroke="#3A3F47" fill="#F15C55"/><path d="M13.098 23.228c2.344 2.05 5.944 1.925 8.162-.335.21-.21-.125-.502-.293-.293-2.05 2.05-5.4 2.22-7.576.335-.21-.168-.502.125-.292.293zM27.874 7.95c.084.417-.293.794-.753.752-.25-.042-.46-.25-.543-.502-.084-.42.293-.795.753-.753.293 0 .503.25.544.502zm0 4.27c.084.417-.293.794-.753.752-.25-.042-.46-.25-.543-.502-.084-.42.293-.796.753-.754.293.042.503.25.544.503zm-3.558 1.422c.084.418-.293.795-.753.753-.25-.042-.46-.25-.544-.502-.085-.42.292-.795.752-.753.293.04.502.25.544.502zm-3.558-1.423c.084.417-.293.794-.753.752-.252-.042-.46-.25-.545-.502-.083-.42.293-.796.754-.754.293.042.502.25.544.503zm1.423 4.478c.085.418-.292.795-.752.753-.25-.04-.46-.25-.544-.5-.084-.42.293-.797.753-.755.293.042.503.252.544.503zm-3.557.71c.084.42-.293.797-.753.755-.25-.042-.46-.25-.544-.503-.084-.418.293-.795.753-.753.292.042.5.25.543.502zm4.27-9.46c.084.42-.293.796-.753.754-.252-.042-.46-.25-.545-.502-.083-.42.293-.795.754-.753.292 0 .5.25.543.502z" fill="#3A3F47"/></g></svg>