<svg width="21" height="38" viewBox="0 0 21 38" xmlns="http://www.w3.org/2000/svg"><title>Mobiles</title><g transform="translate(1 1)" fill="none" fill-rule="evenodd"><path d="M16.904 35.883H2.622c-1.292 0-2.348-1.057-2.348-2.348V2.348C.274 1.058 1.33 0 2.622 0h14.282c1.292 0 2.348 1.057 2.348 2.348v31.187c0 1.29-1.056 2.348-2.348 2.348z" stroke="#3A3F47" fill="#B4B5BA"/><path d="M16.943 30.052H2.583c-.235 0-.392-.156-.392-.39V4.89c0-.235.158-.392.393-.392h14.36c.235 0 .392.157.392.39v24.77c0 .197-.157.392-.392.392z" stroke="#3A3F47" fill="#F3E8D9"/><circle stroke="#3A3F47" fill="#ABACAF" cx="9.783" cy="32.87" r="1.409"/><g transform="translate(6.26 1.957)" stroke="#3A3F47" stroke-width=".4" fill="#F2E5D1"><path d="M6.73.743H1.29c-.155 0-.273-.117-.273-.273 0-.157.118-.274.274-.274h5.44c.157 0 .274.117.274.274-.04.156-.156.273-.274.273z"/><circle cx=".313" cy=".47" r=".274"/></g><path d="M6.848 19.722l5.87-8.257" fill="#ABACAF"/><path d="M7.122 19.878c1.956-2.778 3.913-5.517 5.87-8.295.234-.313-.275-.587-.51-.313-1.956 2.778-3.912 5.517-5.87 8.295-.234.313.275.626.51.313z" fill="#3A3F47"/><g><path d="M10.487 17.648l2.465-3.483" fill="#ABACAF"/><path d="M10.76 17.765c.823-1.174 1.605-2.308 2.427-3.482.235-.313-.274-.587-.51-.313-.82 1.173-1.603 2.308-2.425 3.482-.235.352.274.626.51.313z" fill="#3A3F47"/></g></g></svg>