<svg width="38" height="37" viewBox="0 0 38 37" xmlns="http://www.w3.org/2000/svg"><title>Pet Care</title><g transform="translate(1 1)" fill="none" fill-rule="evenodd"><path d="M14.643 33.29s3.478 4.004 6.876 0v-4.328H14.6l.04 4.328z" stroke="#3A3F47" fill="#E56C5C"/><path d="M35.676 9.02C34.866 3.56 30.903.283 28.03.404c-3.518.122-5.42 3.398-5.42 3.398h-9.14S11.57.526 8.05.404C5.177.284 1.212 3.56.403 9.02c-.283 1.82-.404 5.34.81 7.322.16.242.97 1.01 2.062.525 1.618-.728 2.468-2.103 2.63-6.23 0 0-.405-5.42 3.276-5.136 3.68.284.485 6.513-.485 8.334-1.9 3.64-3.843 8.98-1.618 16.1 2.223 7.158 9.22 3.113 10.96-.042 1.78 3.155 8.738 7.2 10.962.04 2.306-7.402.364-12.62-1.496-16.26-.93-1.82-4.248-7.928-.567-8.21 3.68-.284 3.276 5.136 3.276 5.136.12 4.085 1.01 5.5 2.63 6.23 1.09.484 1.9-.244 2.062-.527 1.213-1.94 1.052-5.5.768-7.28z" stroke="#3A3F47" fill="#C09A7C"/><path d="M18.04 17.92H18c-6.27 0-6.472 2.87-5.825 4.57 1.214 3.317 5.865 4.854 5.865 4.854s4.49-1.578 5.866-4.854c.728-1.78.404-4.57-5.866-4.57z" stroke="#3A3F47" fill="#B4B5BA"/><path d="M16.3 24.19c.203.403.487.727.85.97.243.16.648.444.93.444.244 0 .567-.242.77-.404.404-.283.728-.607.97-1.052.162-.364-.364-.647-.526-.323-.242.526-.768.89-1.294 1.173.162-.08.202 0 0-.08-.162-.082-.283-.163-.404-.244-.324-.202-.607-.485-.77-.85-.16-.282-.687 0-.525.365z" fill="#3A3F47"/><path stroke="#3A3F47" stroke-width="2" fill="#B4B5BA" d="M18.04 29.852v-2.508"/><ellipse fill="#3A3F47" cx="15.452" cy="14.36" rx="1.375" ry="1.375"/><ellipse fill="#3A3F47" cx="20.629" cy="14.36" rx="1.375" ry="1.375"/></g></svg>