<svg width="38" height="38" viewBox="0 0 38 38" xmlns="http://www.w3.org/2000/svg" xmlns:xlink="http://www.w3.org/1999/xlink"><title>Sports</title><defs><ellipse id="a" cx="17.918" cy="18" rx="17.632" ry="17.632"/></defs><g fill="none" fill-rule="evenodd"><g transform="translate(1 1)"><mask id="b" fill="#fff"><use xlink:href="#a"/></mask><use fill="#F4D862" xlink:href="#a"/><ellipse stroke="#3A3F47" fill="#F2E0BB" mask="url(#b)" cx="41.768" cy="18" rx="17.632" ry="17.632"/><ellipse stroke="#3A3F47" fill="#F2E0BB" mask="url(#b)" cx="-5.605" cy="18" rx="17.632" ry="17.632"/></g><path d="M5.173 24.318C3.455 21.536 3.29 18.386 4.56 15.4c.08-.245-.246-.45-.37-.205-1.35 3.11-1.185 6.423.615 9.328.163.204.49 0 .368-.205zM33.36 24.523c1.8-2.905 1.922-6.218.613-9.328-.123-.245-.45-.04-.368.205 1.268 2.986 1.104 6.136-.614 8.918-.122.205.205.41.37.205z" fill="#3A3F47"/><path d="M5.827 22.027c-.818-1.35-.94-2.904-.286-4.336.124-.245-.245-.45-.367-.204-.696 1.596-.614 3.273.286 4.787.122.163.49-.04.367-.246z" fill="#3A3F47"/><ellipse cx="17.918" cy="18" rx="17.632" ry="17.632" stroke="#3A3F47" transform="translate(1 1)"/></g></svg>